<svg version="1.1" id="Layer_1" xmlns="http://www.w3.org/2000/svg" xmlns:xlink="http://www.w3.org/1999/xlink" x="0px" y="0px"
	 width="100%" viewBox="0 0 1024 1024" enable-background="new 0 0 1024 1024" xml:space="preserve">
<path fill="#000000" opacity="1.000000" stroke="none" 
	d="
M623.796387,805.942993 
	C586.281616,820.710022 547.759399,828.068726 507.811920,827.236572 
	C461.832184,826.278748 418.250519,815.452698 377.236694,794.532471 
	C321.328735,766.015076 278.137909,724.148071 247.067703,669.785095 
	C226.948471,634.582825 213.963150,596.871826 208.561020,556.582458 
	C198.567703,482.052032 212.812469,412.409210 251.604675,348.147491 
	C282.631500,296.749573 325.087738,257.099854 378.879059,230.071213 
	C410.228668,214.318924 443.391052,204.220764 478.370514,200.611557 
	C569.663513,191.191864 649.625366,217.127396 717.489990,278.822906 
	C769.181824,325.815857 801.316895,384.264374 814.872864,452.724701 
	C820.545715,481.373596 822.181152,510.301086 819.569580,539.589294 
	C814.084167,601.108948 792.955750,656.482056 755.628845,705.502136 
	C721.063721,750.895264 677.270447,784.544006 623.796387,805.942993 
M361.271179,277.801117 
	C341.082001,291.869476 322.742950,307.984985 306.838013,326.818481 
	C252.446030,391.225647 229.944626,465.449310 239.609085,549.050110 
	C244.559738,591.875000 259.757996,631.315430 283.127106,667.598450 
	C285.241211,670.880798 287.001282,671.684387 290.703430,670.162292 
	C310.108307,662.184875 329.604950,654.429443 349.107178,646.691162 
	C351.988861,645.547791 353.586823,643.618347 354.755157,640.830933 
	C366.794983,612.106018 378.918060,583.416016 391.029968,554.721313 
	C408.063843,514.365906 425.065796,473.996826 442.223846,433.694214 
	C443.668457,430.300934 443.392151,427.865814 441.114777,425.083496 
	C437.635834,420.833191 434.527039,416.282043 431.168823,411.929871 
	C429.434296,409.681915 428.741241,407.472870 429.509827,404.546997 
	C430.774872,399.731079 431.978302,394.830170 432.440094,389.893311 
	C432.824921,385.778870 434.828308,383.768799 438.289673,382.121216 
	C453.179474,375.033661 467.981812,367.762268 482.816254,360.558472 
	C485.568390,359.221954 488.282562,358.837830 491.472290,359.288544 
	C502.602661,360.861206 513.797607,361.977173 524.967957,363.266693 
	C519.098572,361.177155 513.194702,359.414215 507.174103,358.259125 
	C502.288696,357.321747 501.013519,354.946014 501.985718,350.243744 
	C503.354645,343.622437 504.214661,336.895935 505.443542,329.276520 
	C502.002136,331.046661 499.496826,332.726044 496.740448,333.680176 
	C488.311584,336.597870 484.586823,342.419556 484.207489,351.236633 
	C483.953796,357.133789 477.509460,361.394928 470.975983,360.692688 
	C471.341095,357.263153 473.077850,353.162354 471.796722,350.530701 
	C468.806305,344.388062 470.541748,338.480225 470.613464,332.433960 
	C470.651184,329.252258 471.774139,327.179718 474.589600,325.589020 
	C481.260651,321.820190 487.998901,318.106689 494.321106,313.799957 
	C502.494415,308.232269 511.517456,306.187592 521.139343,305.718475 
	C531.485474,305.213989 531.471069,305.164001 533.974792,295.244843 
	C534.556335,292.940674 535.093750,290.665924 538.436218,291.088135 
	C541.633667,291.492035 542.365540,293.220978 542.386719,296.187103 
	C542.460449,306.510345 542.554810,306.509705 552.499084,310.089722 
	C554.222656,310.710266 555.912903,311.454620 557.675842,311.928986 
	C564.829529,313.854126 570.489868,317.824371 575.302856,323.480988 
	C580.695557,329.818939 586.605164,335.717682 592.303833,341.794312 
	C593.445679,343.011871 594.936768,344.156067 594.420593,346.043457 
	C592.687805,352.380188 592.446899,359.175079 588.242554,364.753418 
	C584.401794,369.849274 585.874695,380.094116 590.583008,384.308167 
	C597.038086,390.085632 603.040283,396.410522 609.799744,401.793701 
	C615.435486,406.282013 617.173401,411.045166 616.596191,418.375183 
	C615.793701,428.567017 613.989380,437.295258 603.972778,442.264343 
	C602.361755,443.063538 601.156128,444.660156 599.565063,445.523163 
	C595.347900,447.810608 594.756104,451.332520 595.391113,455.654663 
	C598.192871,474.723022 600.866455,493.810150 603.602600,512.888184 
	C607.494202,540.022705 611.416077,567.152954 615.294800,594.289307 
	C619.080627,620.775757 622.814087,647.269714 626.597595,673.756531 
	C629.839661,696.453186 632.979370,719.166077 636.469177,741.824768 
	C637.510742,748.587524 637.692932,755.586731 640.225830,762.298706 
	C641.586304,761.846436 642.587708,761.664734 643.440247,761.206299 
	C650.929565,757.178711 658.208679,752.813416 665.129333,747.850159 
	C740.262329,693.966675 781.342468,620.767090 788.440674,528.756653 
	C790.417725,503.128571 788.499023,477.376801 782.282043,452.357910 
	C757.567688,352.900696 698.680969,282.802521 602.203430,246.124329 
	C560.289978,230.189941 516.654053,226.856964 472.422913,233.660034 
	C432.330719,239.826492 395.454895,254.568680 361.271179,277.801117 
M459.035217,454.388031 
	C433.986420,523.388123 408.895874,592.373108 383.982635,661.422119 
	C382.323547,666.020508 379.993561,668.887390 375.363861,670.745361 
	C354.504364,679.116394 333.779327,687.822815 313.019012,696.440002 
	C311.220428,697.186523 309.157379,697.552673 307.958130,699.310974 
	C307.859436,701.328247 309.350189,702.341125 310.464386,703.495178 
	C316.247650,709.485718 322.270844,715.255920 327.846375,721.431641 
	C331.529114,725.510803 334.800568,725.429260 339.504883,722.969482 
	C373.896393,704.986755 408.417389,687.251282 442.923553,669.488342 
	C460.494354,660.443237 478.230499,651.713745 495.187286,641.367126 
	C476.721008,648.012451 458.254730,654.657837 438.318756,661.832092 
	C456.587891,575.958862 474.535431,491.597198 492.725098,406.097473 
	C487.645355,408.294830 483.667725,410.296478 479.497620,411.743439 
	C474.973785,413.313110 472.660492,416.303772 471.155151,420.768982 
	C467.433685,431.807770 463.258972,442.693787 459.035217,454.388031 
M532.033936,440.807220 
	C532.308838,437.666229 532.493469,434.514008 532.880920,431.386963 
	C533.396606,427.225616 531.353821,424.652771 527.767212,423.258270 
	C523.554443,421.620331 519.257385,420.611877 514.661072,422.141937 
	C511.343445,423.246429 509.270111,424.951294 508.854401,428.678406 
	C507.897400,437.258789 506.767822,445.822418 505.541443,454.368927 
	C505.070312,457.652008 507.267731,458.001709 509.403748,458.242432 
	C515.963257,458.981720 522.542236,459.548462 529.274475,460.197754 
	C531.173035,453.935944 531.763184,447.862549 532.033936,440.807220 
z"/>
</svg>